<?xml version="1.0" encoding="UTF-8" standalone="no"?>
<!DOCTYPE svg PUBLIC "-//W3C//DTD SVG 1.1//EN" "http://www.w3.org/Graphics/SVG/1.1/DTD/svg11.dtd">
<svg xmlns="http://www.w3.org/2000/svg" version="1.1" viewBox="0 0 662 377" width="662.0pt" height="377.0pt" xmlns:xlink="http://www.w3.org/1999/xlink">
<defs>
<path d="M 0.00 0.00 L 662.00 0.00 L 662.00 377.00 L 0.00 377.00 L 0.00 0.00 Z M 282.77 140.62 C 295.05 140.80 307.34 140.67 319.61 140.72 C 319.62 136.71 319.63 132.70 319.58 128.69 C 303.62 128.80 287.66 128.66 271.71 128.77 C 275.39 132.73 279.14 136.62 282.77 140.62 Z M 322.25 128.70 C 321.52 138.18 321.77 147.74 321.85 157.24 C 327.12 153.34 330.68 148.19 335.37 143.65 C 335.34 138.77 335.34 133.89 335.38 129.01 C 331.01 128.61 326.64 128.65 322.25 128.70 Z M 322.89 165.04 C 323.10 165.72 323.31 166.40 323.52 167.08 C 335.00 178.89 346.68 190.53 358.21 202.31 C 364.51 202.49 370.83 202.50 377.13 202.27 C 368.10 193.50 359.53 184.30 350.41 175.62 C 347.60 172.11 343.06 169.27 341.19 165.20 C 342.79 162.93 345.12 161.07 347.07 159.08 C 356.96 148.86 367.29 139.11 377.10 128.82 C 371.14 128.82 364.98 128.25 359.07 128.99 C 354.01 132.76 350.07 138.18 345.44 142.51 C 337.73 149.83 330.55 157.67 322.89 165.04 Z M 271.28 202.39 C 275.04 202.38 278.79 202.38 282.54 202.39 C 282.61 194.34 282.55 186.29 282.56 178.24 C 285.37 177.88 288.17 177.70 291.00 177.72 C 300.54 177.76 310.08 177.75 319.62 177.74 C 319.59 173.68 319.58 169.62 319.55 165.56 C 303.46 165.60 287.37 165.58 271.28 165.58 C 271.18 177.84 271.18 190.13 271.28 202.39 Z M 322.33 174.33 C 321.47 183.58 321.54 193.19 322.16 202.45 C 326.57 202.46 330.96 202.47 335.36 202.15 C 335.29 197.76 335.55 193.34 335.25 188.97 C 335.20 187.45 333.90 186.12 332.97 185.03 C 329.55 181.37 325.88 177.86 322.33 174.33 Z M 257.32 260.46 C 262.22 260.40 267.14 260.60 272.04 260.37 C 275.10 260.16 278.04 259.53 279.86 256.83 C 281.78 254.49 281.77 251.73 281.38 248.87 C 280.91 246.71 278.85 244.82 277.46 243.18 C 279.85 239.70 281.72 236.39 280.15 232.06 C 278.92 228.18 274.57 226.85 270.95 226.36 C 266.49 226.17 261.90 226.11 257.44 226.42 C 257.12 237.74 257.41 249.13 257.32 260.46 Z M 348.45 258.39 C 348.88 259.01 349.31 259.63 349.74 260.25 C 351.08 260.26 352.42 260.27 353.76 260.28 C 353.85 254.60 353.86 248.90 353.76 243.22 C 349.70 243.21 345.63 243.21 341.56 243.23 C 341.55 245.05 341.54 246.87 341.53 248.69 C 343.17 248.70 344.80 248.71 346.44 248.72 C 346.86 249.09 347.29 249.45 347.72 249.82 C 346.89 251.12 346.08 252.43 345.26 253.74 C 342.26 254.26 339.82 254.24 336.82 253.67 C 335.20 250.54 333.62 247.68 333.72 244.01 C 333.60 240.08 334.97 236.76 336.78 233.38 C 339.64 232.85 342.10 232.74 344.95 233.36 C 345.74 234.46 346.50 235.60 347.40 236.61 C 349.56 236.48 351.72 235.92 353.84 235.46 C 352.08 232.58 350.45 229.22 347.19 227.81 C 340.59 223.81 329.94 228.34 328.49 236.02 C 326.93 241.65 326.94 247.62 329.00 253.12 C 330.26 256.42 332.97 259.08 336.38 260.07 C 340.69 261.05 344.59 260.51 348.45 258.39 Z M 444.97 250.87 C 442.89 250.67 440.73 250.27 438.65 250.43 C 437.93 251.42 437.26 252.45 436.64 253.52 C 433.46 254.52 431.07 254.25 427.92 253.43 C 424.83 246.86 424.14 239.90 428.56 233.76 C 431.14 232.13 433.51 233.01 436.30 233.30 C 436.88 234.50 437.46 235.70 438.04 236.90 C 440.23 236.49 442.41 236.05 444.59 235.57 C 443.46 233.46 442.33 231.04 440.64 229.33 C 437.90 227.35 434.43 225.72 430.95 226.37 C 426.44 227.34 422.28 229.75 420.54 234.24 C 418.94 238.50 419.22 243.58 419.47 248.04 C 419.89 253.44 422.65 258.49 428.14 260.03 C 432.46 260.87 437.29 260.94 440.84 257.93 C 443.16 256.08 444.07 253.58 444.97 250.87 Z M 198.90 247.25 C 196.51 240.90 195.96 233.92 194.27 227.34 C 192.22 227.34 190.17 227.35 188.13 227.37 C 188.76 232.85 190.50 238.03 191.47 243.44 C 192.49 249.16 194.14 254.71 195.02 260.45 C 197.08 260.16 200.87 261.17 202.18 259.28 C 203.69 252.96 204.51 246.40 205.83 240.02 C 206.27 240.24 206.72 240.45 207.16 240.66 C 208.42 247.31 209.47 253.94 211.45 260.43 C 213.52 260.42 215.59 260.43 217.67 260.43 C 219.69 253.74 220.47 246.82 222.28 240.08 C 223.32 235.88 223.86 231.58 224.77 227.35 C 222.65 227.34 220.53 227.34 218.41 227.34 C 217.34 233.97 215.83 240.48 214.20 246.99 C 212.01 240.58 211.17 234.09 210.11 227.42 C 207.90 227.35 205.64 227.22 203.44 227.47 C 201.10 233.76 200.57 240.74 198.90 247.25 Z M 228.84 227.36 L 228.83 227.97 C 228.77 238.78 228.87 249.58 228.78 260.39 C 236.43 260.42 244.08 260.40 251.73 260.40 C 251.72 258.41 251.71 256.43 251.69 254.44 C 246.47 254.43 241.25 254.46 236.04 254.42 C 235.78 251.67 235.68 248.92 235.60 246.17 C 239.51 245.68 243.41 245.76 247.34 245.65 C 247.34 243.88 247.34 242.11 247.34 240.35 C 243.45 240.25 239.58 240.18 235.71 239.69 C 235.70 237.43 235.69 235.17 235.68 232.90 C 240.94 232.63 246.16 232.71 251.41 232.72 C 251.41 230.93 251.40 229.14 251.40 227.35 C 243.88 227.34 236.36 227.32 228.84 227.36 Z M 298.90 260.42 C 301.02 260.32 303.13 260.20 305.25 260.04 C 305.75 257.83 306.31 255.63 306.86 253.42 C 310.25 253.30 313.64 253.29 317.03 253.37 C 317.82 255.70 318.63 258.03 319.53 260.32 C 321.62 260.27 323.70 260.22 325.79 260.18 C 324.80 255.75 323.22 251.52 322.02 247.15 C 320.04 240.55 318.45 233.86 316.21 227.33 C 313.61 227.32 310.94 227.18 308.37 227.53 C 306.04 231.84 305.45 237.12 303.81 241.75 C 302.15 248.07 299.57 253.87 298.90 260.42 Z M 360.25 260.37 C 367.92 260.41 375.60 260.43 383.28 260.37 C 383.27 258.41 383.27 256.46 383.26 254.51 C 377.92 254.41 372.57 254.46 367.23 254.41 C 367.18 251.54 367.17 248.66 367.21 245.79 C 371.03 245.76 374.84 245.76 378.66 245.72 C 378.66 243.89 378.66 242.07 378.67 240.25 C 374.89 240.20 371.12 240.20 367.34 240.21 C 367.22 237.73 367.16 235.25 367.14 232.76 C 372.30 232.71 377.47 232.73 382.63 232.70 C 382.64 230.92 382.64 229.13 382.64 227.35 C 375.25 227.41 367.80 227.08 360.43 227.51 C 360.01 238.43 360.43 249.43 360.25 260.37 Z M 407.77 227.41 C 407.74 234.28 407.98 241.19 407.57 248.06 C 402.87 241.59 399.62 234.14 395.30 227.39 C 392.93 227.36 390.55 227.34 388.17 227.34 C 388.12 238.36 388.13 249.39 388.16 260.42 C 390.23 260.41 392.30 260.39 394.37 260.38 C 394.40 253.30 394.34 246.22 394.43 239.14 C 394.96 239.27 395.49 239.41 396.02 239.54 C 399.86 246.55 403.95 253.45 407.86 260.43 C 410.00 260.40 412.14 260.38 414.28 260.36 C 414.28 249.37 414.26 238.38 414.28 227.40 C 412.11 227.37 409.94 227.37 407.77 227.41 Z M 458.59 239.00 C 456.76 235.13 455.03 231.21 453.15 227.36 C 450.87 227.35 448.60 227.35 446.32 227.37 C 448.80 232.94 451.48 238.43 454.00 243.98 C 456.45 248.69 455.25 255.16 455.51 260.39 C 457.59 260.40 459.67 260.40 461.74 260.41 C 461.93 255.79 461.14 250.71 462.35 246.24 C 464.91 239.80 468.40 233.74 471.03 227.33 C 468.84 227.32 466.57 227.19 464.40 227.49 C 461.94 230.97 460.68 235.26 458.59 239.00 Z" id="p0" />
<path d="M 271.71 128.77 C 287.66 128.66 303.62 128.80 319.58 128.69 C 319.63 132.70 319.62 136.71 319.61 140.72 C 307.34 140.67 295.05 140.80 282.77 140.62 C 279.14 136.62 275.39 132.73 271.71 128.77 Z" id="p1" />
<path d="M 322.25 128.70 C 326.64 128.65 331.01 128.61 335.38 129.01 C 335.34 133.89 335.34 138.77 335.37 143.65 C 330.68 148.19 327.12 153.34 321.85 157.24 C 321.77 147.74 321.52 138.18 322.25 128.70 Z" id="p2" />
<path d="M 359.07 128.99 C 364.98 128.25 371.14 128.82 377.10 128.82 C 367.29 139.11 356.96 148.86 347.07 159.08 C 345.12 161.07 342.79 162.93 341.19 165.20 C 343.06 169.27 347.60 172.11 350.41 175.62 C 359.53 184.30 368.10 193.50 377.13 202.27 C 370.83 202.50 364.51 202.49 358.21 202.31 C 346.68 190.53 335.00 178.89 323.52 167.08 C 323.31 166.40 323.10 165.72 322.89 165.04 C 330.55 157.67 337.73 149.83 345.44 142.51 C 350.07 138.18 354.01 132.76 359.07 128.99 Z" id="p3" />
<path d="M 271.28 165.58 C 287.37 165.58 303.46 165.60 319.55 165.56 C 319.58 169.62 319.59 173.68 319.62 177.74 C 310.08 177.75 300.54 177.76 291.00 177.72 C 288.17 177.70 285.37 177.88 282.56 178.24 C 282.55 186.29 282.61 194.34 282.54 202.39 C 278.79 202.38 275.04 202.38 271.28 202.39 C 271.18 190.13 271.18 177.84 271.28 165.58 Z" id="p4" />
<path d="M 322.33 174.33 C 325.88 177.86 329.55 181.37 332.97 185.03 C 333.90 186.12 335.20 187.45 335.25 188.97 C 335.55 193.34 335.29 197.76 335.36 202.15 C 330.96 202.47 326.57 202.46 322.16 202.45 C 321.54 193.19 321.47 183.58 322.33 174.33 Z" id="p5" />
<path d="M 257.44 226.42 C 261.90 226.11 266.49 226.17 270.95 226.36 C 274.57 226.85 278.92 228.18 280.15 232.06 C 281.72 236.39 279.85 239.70 277.46 243.18 C 278.85 244.82 280.91 246.71 281.38 248.87 C 281.77 251.73 281.78 254.49 279.86 256.83 C 278.04 259.53 275.10 260.16 272.04 260.37 C 267.14 260.60 262.22 260.40 257.32 260.46 C 257.41 249.13 257.12 237.74 257.44 226.42 Z M 263.43 240.43 C 266.13 240.50 268.82 240.55 271.52 240.62 C 274.11 238.45 274.28 237.01 274.56 233.70 C 270.89 231.56 267.61 231.52 263.47 231.68 C 263.40 234.60 263.40 237.51 263.43 240.43 Z M 263.48 255.27 C 266.92 255.12 271.69 256.00 274.45 253.54 C 274.95 251.53 275.46 247.88 273.23 246.69 C 270.35 245.39 266.57 245.73 263.52 246.20 C 263.24 249.20 263.40 252.27 263.48 255.27 Z" id="p6" />
<path d="M 347.19 227.81 C 350.45 229.22 352.08 232.58 353.84 235.46 C 351.72 235.92 349.56 236.48 347.40 236.61 C 346.50 235.60 345.74 234.46 344.95 233.36 C 342.10 232.74 339.64 232.85 336.78 233.38 C 334.97 236.76 333.60 240.08 333.72 244.01 C 333.62 247.68 335.20 250.54 336.82 253.67 C 339.82 254.24 342.26 254.26 345.26 253.74 C 346.08 252.43 346.89 251.12 347.72 249.82 C 347.29 249.45 346.86 249.09 346.44 248.72 C 344.80 248.71 343.17 248.70 341.53 248.69 C 341.54 246.87 341.55 245.05 341.56 243.23 C 345.63 243.21 349.70 243.21 353.76 243.22 C 353.86 248.90 353.85 254.60 353.76 260.28 C 352.42 260.27 351.08 260.26 349.74 260.25 C 349.31 259.63 348.88 259.01 348.45 258.39 C 344.59 260.51 340.69 261.05 336.38 260.07 C 332.97 259.08 330.26 256.42 329.00 253.12 C 326.94 247.62 326.93 241.65 328.49 236.02 C 329.94 228.34 340.59 223.81 347.19 227.81 Z" id="p7" />
<path d="M 430.95 226.37 C 434.43 225.72 437.90 227.35 440.64 229.33 C 442.33 231.04 443.46 233.46 444.59 235.57 C 442.41 236.05 440.23 236.49 438.04 236.90 C 437.46 235.70 436.88 234.50 436.30 233.30 C 433.51 233.01 431.14 232.13 428.56 233.76 C 424.14 239.90 424.83 246.86 427.92 253.43 C 431.07 254.25 433.46 254.52 436.64 253.52 C 437.26 252.45 437.93 251.42 438.65 250.43 C 440.73 250.27 442.89 250.67 444.97 250.87 C 444.07 253.58 443.16 256.08 440.84 257.93 C 437.29 260.94 432.46 260.87 428.14 260.03 C 422.65 258.49 419.89 253.44 419.47 248.04 C 419.22 243.58 418.94 238.50 420.54 234.24 C 422.28 229.75 426.44 227.34 430.95 226.37 Z" id="p8" />
<path d="M 203.44 227.47 C 205.64 227.22 207.90 227.35 210.11 227.42 C 211.17 234.09 212.01 240.58 214.20 246.99 C 215.83 240.48 217.34 233.97 218.41 227.34 C 220.53 227.34 222.65 227.34 224.77 227.35 C 223.86 231.58 223.32 235.88 222.28 240.08 C 220.47 246.82 219.69 253.74 217.67 260.43 C 215.59 260.43 213.52 260.42 211.45 260.43 C 209.47 253.94 208.42 247.31 207.16 240.66 C 206.72 240.45 206.27 240.24 205.83 240.02 C 204.51 246.40 203.69 252.96 202.18 259.28 C 200.87 261.17 197.08 260.16 195.02 260.45 C 194.14 254.71 192.49 249.16 191.47 243.44 C 190.50 238.03 188.76 232.85 188.13 227.37 C 190.17 227.35 192.22 227.34 194.27 227.34 C 195.96 233.92 196.51 240.90 198.90 247.25 C 200.57 240.74 201.10 233.76 203.44 227.47 Z" id="p9" />
<path d="M 228.84 227.36 C 236.36 227.32 243.88 227.34 251.40 227.35 C 251.40 229.14 251.41 230.93 251.41 232.72 C 246.16 232.71 240.94 232.63 235.68 232.90 C 235.69 235.17 235.70 237.43 235.71 239.69 C 239.58 240.18 243.45 240.25 247.34 240.35 C 247.34 242.11 247.34 243.88 247.34 245.65 C 243.41 245.76 239.51 245.68 235.60 246.17 C 235.68 248.92 235.78 251.67 236.04 254.42 C 241.25 254.46 246.47 254.43 251.69 254.44 C 251.71 256.43 251.72 258.41 251.73 260.40 C 244.08 260.40 236.43 260.42 228.78 260.39 C 228.87 249.58 228.77 238.78 228.83 227.97 L 228.84 227.36 Z" id="p10" />
<path d="M 308.37 227.53 C 310.94 227.18 313.61 227.32 316.21 227.33 C 318.45 233.86 320.04 240.55 322.02 247.15 C 323.22 251.52 324.80 255.75 325.79 260.18 C 323.70 260.22 321.62 260.27 319.53 260.32 C 318.63 258.03 317.82 255.70 317.03 253.37 C 313.64 253.29 310.25 253.30 306.86 253.42 C 306.31 255.63 305.75 257.83 305.25 260.04 C 303.13 260.20 301.02 260.32 298.90 260.42 C 299.57 253.87 302.15 248.07 303.81 241.75 C 305.45 237.12 306.04 231.84 308.37 227.53 Z M 311.98 235.67 C 310.78 239.64 309.64 243.62 308.76 247.66 C 311.06 247.65 313.36 247.61 315.65 247.52 C 314.76 244.09 314.07 240.55 312.86 237.21 C 312.57 236.69 312.28 236.18 311.98 235.67 Z" id="p11" />
<path d="M 360.43 227.51 C 367.80 227.08 375.25 227.41 382.64 227.35 C 382.64 229.13 382.64 230.92 382.63 232.70 C 377.47 232.73 372.30 232.71 367.14 232.76 C 367.16 235.25 367.22 237.73 367.34 240.21 C 371.12 240.20 374.89 240.20 378.67 240.25 C 378.66 242.07 378.66 243.89 378.66 245.72 C 374.84 245.76 371.03 245.76 367.21 245.79 C 367.17 248.66 367.18 251.54 367.23 254.41 C 372.57 254.46 377.92 254.41 383.26 254.51 C 383.27 256.46 383.27 258.41 383.28 260.37 C 375.60 260.43 367.92 260.41 360.25 260.37 C 360.43 249.43 360.01 238.43 360.43 227.51 Z" id="p12" />
<path d="M 414.28 227.40 C 414.26 238.38 414.28 249.37 414.28 260.36 C 412.14 260.38 410.00 260.40 407.86 260.43 C 403.95 253.45 399.86 246.55 396.02 239.54 C 395.49 239.41 394.96 239.27 394.43 239.14 C 394.34 246.22 394.40 253.30 394.37 260.38 C 392.30 260.39 390.23 260.41 388.16 260.42 C 388.13 249.39 388.12 238.36 388.17 227.34 C 390.55 227.34 392.93 227.36 395.30 227.39 C 399.62 234.14 402.87 241.59 407.57 248.06 C 407.98 241.19 407.74 234.28 407.77 227.41 C 409.94 227.37 412.11 227.37 414.28 227.40 Z" id="p13" />
<path d="M 464.40 227.49 C 466.57 227.19 468.84 227.32 471.03 227.33 C 468.40 233.74 464.91 239.80 462.35 246.24 C 461.14 250.71 461.93 255.79 461.74 260.41 C 459.67 260.40 457.59 260.40 455.51 260.39 C 455.25 255.16 456.45 248.69 454.00 243.98 C 451.48 238.43 448.80 232.94 446.32 227.37 C 448.60 227.35 450.87 227.35 453.15 227.36 C 455.03 231.21 456.76 235.13 458.59 239.00 C 460.68 235.26 461.94 230.97 464.40 227.49 Z" id="p14" />
<path d="M 263.47 231.68 C 267.61 231.52 270.89 231.56 274.56 233.70 C 274.28 237.01 274.11 238.45 271.52 240.62 C 268.82 240.55 266.13 240.50 263.43 240.43 C 263.40 237.51 263.40 234.60 263.47 231.68 Z" id="p15" />
<path d="M 311.98 235.67 C 312.28 236.18 312.57 236.69 312.86 237.21 C 314.07 240.55 314.76 244.09 315.65 247.52 C 313.36 247.61 311.06 247.65 308.76 247.66 C 309.64 243.62 310.78 239.64 311.98 235.67 Z" id="p16" />
<path d="M 263.52 246.20 C 266.57 245.73 270.35 245.39 273.23 246.69 C 275.46 247.88 274.95 251.53 274.45 253.54 C 271.69 256.00 266.92 255.12 263.48 255.27 C 263.40 252.27 263.24 249.20 263.52 246.20 Z" id="p17" />
</defs>
<g stroke-width="10pt">
<use stroke="#ffffff" xlink:href="#p0" />
<use stroke="#25415e" xlink:href="#p1" />
<use stroke="#338f8a" xlink:href="#p2" />
<use stroke="#338f8a" xlink:href="#p3" />
<use stroke="#25415e" xlink:href="#p4" />
<use stroke="#338f8a" xlink:href="#p5" />
<use stroke="#25415e" xlink:href="#p6" />
<use stroke="#25415e" xlink:href="#p7" />
<use stroke="#25415e" xlink:href="#p8" />
<use stroke="#25415e" xlink:href="#p9" />
<use stroke="#25415e" xlink:href="#p10" />
<use stroke="#25415e" xlink:href="#p11" />
<use stroke="#25415e" xlink:href="#p12" />
<use stroke="#25415e" xlink:href="#p13" />
<use stroke="#25415e" xlink:href="#p14" />
<use stroke="#ffffff" xlink:href="#p15" />
<use stroke="#ffffff" xlink:href="#p16" />
<use stroke="#ffffff" xlink:href="#p17" />
</g>
<g>
<use fill="#ffffff" xlink:href="#p0" />
<use fill="#25415e" xlink:href="#p1" />
<use fill="#338f8a" xlink:href="#p2" />
<use fill="#338f8a" xlink:href="#p3" />
<use fill="#25415e" xlink:href="#p4" />
<use fill="#338f8a" xlink:href="#p5" />
<use fill="#25415e" xlink:href="#p6" />
<use fill="#25415e" xlink:href="#p7" />
<use fill="#25415e" xlink:href="#p8" />
<use fill="#25415e" xlink:href="#p9" />
<use fill="#25415e" xlink:href="#p10" />
<use fill="#25415e" xlink:href="#p11" />
<use fill="#25415e" xlink:href="#p12" />
<use fill="#25415e" xlink:href="#p13" />
<use fill="#25415e" xlink:href="#p14" />
<use fill="#ffffff" xlink:href="#p15" />
<use fill="#ffffff" xlink:href="#p16" />
<use fill="#ffffff" xlink:href="#p17" />
</g>
</svg>